<svg xmlns="http://www.w3.org/2000/svg" width="41.678" height="41.678" viewBox="0 0 41.678 41.678">
  <path id="Icon_awesome-arrow-up" data-name="Icon awesome-arrow-up" d="M1.949,17.16.47,15.681a1.592,1.592,0,0,1,0-2.259L13.415.47a1.592,1.592,0,0,1,2.259,0L28.619,13.415a1.592,1.592,0,0,1,0,2.259L27.14,17.153a1.6,1.6,0,0,1-2.285-.027L17.213,9.1V28.253a1.6,1.6,0,0,1-1.6,1.6H13.482a1.6,1.6,0,0,1-1.6-1.6V9.1L4.234,17.133A1.589,1.589,0,0,1,1.949,17.16Z" transform="translate(21.109) rotate(45)" fill="#1b79e6"/>
</svg>
