<svg id="Group_1321" data-name="Group 1321" xmlns="http://www.w3.org/2000/svg" width="54.012" height="50.404" viewBox="0 0 54.012 50.404">
  <path id="Path_822" data-name="Path 822" d="M154.752,327.821c-3.646,1.821-7.054,3.52-10.458,5.225a.824.824,0,0,1-.8.012c-3.442-1.71-6.887-3.414-10.573-5.239,1.734-.913,3.239-1.714,4.752-2.5,1.14-.592,2.265-1.221,3.442-1.73a1.74,1.74,0,0,0,1.211-1.906c-.078-3.293-.035-6.589-.027-9.883,0-1.6.5-2.1,2.079-2.118,1.044-.012,2.093-.047,3.133.026.933.066,1.246-.315,1.12-1.185a2.507,2.507,0,0,1,0-.361c0-2.268,0-2.261,1.979-1.263,2.186,1.1,4.37,2.212,6.576,3.273a1.4,1.4,0,0,1,.95,1.453c-.043,3.174-.039,6.348-.005,9.522.009.917-.19,1.147-1.072.689-2.387-1.24-4.8-2.431-7.215-3.614a1.912,1.912,0,0,1-1.216-1.893,13.188,13.188,0,0,0-.021-1.686c-.061-.565.357-1.422-.284-1.632a6.923,6.923,0,0,0-2.5-.059c-.442.027-.346.476-.347.777-.007,2.853.015,5.705-.019,8.558-.008.675.393.883.872,1.129q3.429,1.759,6.845,3.544C153.633,327.2,154.083,327.456,154.752,327.821Z" transform="translate(-132.708 -297.02)" fill="#fff"/>
  <path id="Path_823" data-name="Path 823" d="M275.735,327.637c-2.77,1.383-5.377,2.469-7.751,3.932a5.388,5.388,0,0,1-6.361.013c-2.371-1.473-4.982-2.56-7.721-3.932,1.729-.911,3.262-1.723,4.8-2.527,1.245-.651,2.481-1.321,3.748-1.927a1.154,1.154,0,0,0,.74-1.213c-.025-2.731-.041-5.463.007-8.194.015-.864-.29-1.1-1.109-1.074-2.486.068-2.017-.228-2.068,2.023q-.017.723,0,1.446a1.842,1.842,0,0,1-1.121,1.827c-2.484,1.225-4.967,2.452-7.432,3.715-.788.4-.961.148-.956-.629q.029-4.88,0-9.761a1.174,1.174,0,0,1,.735-1.22q3.9-1.9,7.76-3.864c.8-.41,1.021-.223,1.032.657.032,2.576.061,2.576,2.664,2.61,3.612.048,3.623.048,3.644,3.694.016,2.852.022,5.7-.017,8.556a1.419,1.419,0,0,0,.9,1.491C269.987,324.637,272.716,326.076,275.735,327.637Z" transform="translate(-221.935 -296.856)" fill="#fff"/>
  <path id="Path_824" data-name="Path 824" d="M199.426,273.309c3.484-1.786,6.833-3.5,10.184-5.219a1.141,1.141,0,0,1,1.05-.033c3.39,1.724,6.772,3.463,10.142,5.191-.163.532-.565.575-.868.727-2.938,1.479-5.883,2.942-8.822,4.418a1.528,1.528,0,0,1-1.563.172c-3.211-1.648-6.448-3.246-9.674-4.867A3.524,3.524,0,0,1,199.426,273.309Z" transform="translate(-183.173 -267.945)" fill="#fff"/>
  <path id="Path_825" data-name="Path 825" d="M132.036,409.983c1.991.97,3.819,1.859,5.645,2.752a4.718,4.718,0,0,0,.857.433c2.764.686,3.45,2.49,3.163,5.162a58.943,58.943,0,0,0-.05,6.981c.01.813-.2,1-.958.617-2.507-1.265-5.035-2.489-7.552-3.734a1.653,1.653,0,0,1-1.1-1.461C132.026,417.214,132.036,413.7,132.036,409.983Z" transform="translate(-132.033 -375.728)" fill="#fff"/>
  <path id="Path_826" data-name="Path 826" d="M325.7,409.922c0,3.684,0,7.135,0,10.586a1.786,1.786,0,0,1-1.161,1.675c-2.483,1.225-4.977,2.427-7.447,3.677-.809.41-1.028.233-1.018-.654.035-3.212.018-6.425.01-9.637,0-.5.019-.934.565-1.2C319.6,412.933,322.54,411.476,325.7,409.922Z" transform="translate(-271.688 -375.681)" fill="#fff"/>
  <path id="Path_827" data-name="Path 827" d="M184.819,421.261c0-1.605.029-3.211-.014-4.816a1.3,1.3,0,0,1,.828-1.4q3.847-1.854,7.644-3.808c.864-.445,1.078-.248,1.066.685-.04,3.01-.033,6.02-.006,9.03a2.061,2.061,0,0,1-1.259,2.105c-2.383,1.15-4.758,2.321-7.1,3.555-1.022.539-1.21.223-1.175-.778C184.858,424.312,184.819,422.786,184.819,421.261Z" transform="translate(-172.075 -376.509)" fill="#fff"/>
  <path id="Path_828" data-name="Path 828" d="M273.181,421.079c0,1.686-.012,3.371,0,5.057.007.691-.211.857-.853.531-2.539-1.288-5.09-2.551-7.638-3.821a1.7,1.7,0,0,1-1.013-1.637c0-3.211.007-6.421-.015-9.632-.005-.746.257-.809.855-.508q4.029,2.029,8.077,4.019c.538.263.595.664.59,1.175C273.172,417.869,273.182,419.474,273.181,421.079Z" transform="translate(-231.92 -376.424)" fill="#fff"/>
</svg>
