<svg xmlns="http://www.w3.org/2000/svg" width="33.409" height="33.409" viewBox="0 0 33.409 33.409">
  <path id="Icon_awesome-arrow-up" data-name="Icon awesome-arrow-up" d="M1.562,13.755.377,12.569a1.276,1.276,0,0,1,0-1.811L10.754.377a1.276,1.276,0,0,1,1.811,0L22.941,10.754a1.276,1.276,0,0,1,0,1.811L21.756,13.75a1.283,1.283,0,0,1-1.832-.021L13.8,7.3V22.648a1.279,1.279,0,0,1-1.282,1.282H10.807a1.279,1.279,0,0,1-1.282-1.282V7.3L3.394,13.734A1.274,1.274,0,0,1,1.562,13.755Z" transform="translate(16.488 33.409) rotate(-135)" fill="#ff4077"/>
</svg>
