<svg xmlns="http://www.w3.org/2000/svg" width="27.201" height="31.087" viewBox="0 0 27.201 31.087">
  <g id="Group_770" data-name="Group 770" transform="translate(-229.706 -1179.539)">
    <path id="FontAwsome_calendar_" data-name="FontAwsome (calendar)" d="M.729,11.658H26.473a.731.731,0,0,1,.729.729V28.173a2.915,2.915,0,0,1-2.914,2.914H2.914A2.915,2.915,0,0,1,0,28.173V12.386A.731.731,0,0,1,.729,11.658ZM27.2,8.986V6.8a2.915,2.915,0,0,0-2.914-2.914H21.372V.729A.731.731,0,0,0,20.644,0H18.215a.731.731,0,0,0-.729.729V3.886H9.715V.729A.731.731,0,0,0,8.986,0H6.557a.731.731,0,0,0-.729.729V3.886H2.914A2.915,2.915,0,0,0,0,6.8V8.986a.731.731,0,0,0,.729.729H26.473A.731.731,0,0,0,27.2,8.986Z" transform="translate(229.706 1179.539)" fill="#1b79e6"/>
    <path id="FontAwsome_clock_" data-name="FontAwsome (clock)" d="M14.687,8a6.687,6.687,0,1,0,6.687,6.687A6.686,6.686,0,0,0,14.687,8Zm1.54,9.44-2.378-1.728a.326.326,0,0,1-.132-.262V10.912a.324.324,0,0,1,.324-.324h1.294a.325.325,0,0,1,.324.324v3.713l1.712,1.246a.323.323,0,0,1,.07.453l-.76,1.046a.326.326,0,0,1-.453.07Z" transform="translate(228.887 1186.5)" fill="#fff"/>
  </g>
</svg>
