<svg xmlns="http://www.w3.org/2000/svg" width="39.563" height="39.563" viewBox="0 0 39.563 39.563">
  <path id="Icon_awesome-arrow-up" data-name="Icon awesome-arrow-up" d="M1.85,16.289l-1.4-1.4a1.512,1.512,0,0,1,0-2.144L12.735.446a1.512,1.512,0,0,1,2.144,0L27.167,12.735a1.512,1.512,0,0,1,0,2.144l-1.4,1.4a1.52,1.52,0,0,1-2.169-.025L16.34,8.643V26.82a1.514,1.514,0,0,1-1.518,1.518H12.8A1.514,1.514,0,0,1,11.28,26.82V8.643L4.019,16.264A1.509,1.509,0,0,1,1.85,16.289Z" transform="translate(20.038) rotate(45)" fill="#243257"/>
</svg>
