<svg xmlns="http://www.w3.org/2000/svg" width="38.419" height="38.419" viewBox="0 0 38.419 38.419">
  <path id="Icon_awesome-arrow-up" data-name="Icon awesome-arrow-up" d="M1.8,15.818.433,14.454a1.468,1.468,0,0,1,0-2.082L12.366.433a1.468,1.468,0,0,1,2.082,0L26.382,12.366a1.468,1.468,0,0,1,0,2.082l-1.363,1.363a1.476,1.476,0,0,1-2.107-.025L15.867,8.393V26.044a1.47,1.47,0,0,1-1.474,1.474H12.428a1.47,1.47,0,0,1-1.474-1.474V8.393L3.9,15.793A1.465,1.465,0,0,1,1.8,15.818Z" transform="translate(18.961 38.419) rotate(-135)" fill="#1b79e6"/>
</svg>
