<svg xmlns="http://www.w3.org/2000/svg" width="40.832" height="40.832" viewBox="0 0 40.832 40.832">
  <path id="FontAwsome_history_" data-name="FontAwsome (history)" d="M48.832,28.377A20.417,20.417,0,0,1,15.6,44.311a1.974,1.974,0,0,1-.151-2.931l.928-.928A1.979,1.979,0,0,1,19,40.289a15.148,15.148,0,1,0-.967-22.91l4.178,4.178a1.317,1.317,0,0,1-.931,2.249H9.317A1.317,1.317,0,0,1,8,22.489V10.521a1.317,1.317,0,0,1,2.249-.931l4.064,4.064A20.416,20.416,0,0,1,48.832,28.377ZM33.939,34.863l.809-1.04a1.976,1.976,0,0,0-.347-2.773L31.05,28.445v-8.59a1.976,1.976,0,0,0-1.976-1.976H27.757a1.976,1.976,0,0,0-1.976,1.976V31.021l5.385,4.188A1.976,1.976,0,0,0,33.939,34.863Z" transform="translate(-8 -8)" fill="#fff"/>
</svg>
