<svg xmlns="http://www.w3.org/2000/svg" width="30.377" height="30.377" viewBox="0 0 30.377 30.377">
  <path id="Icon_awesome-sticky-note" data-name="Icon awesome-sticky-note" d="M21.155,21.778h9.222V3.877A1.623,1.623,0,0,0,28.75,2.25H1.627A1.623,1.623,0,0,0,0,3.877V31a1.623,1.623,0,0,0,1.627,1.627h17.9V23.405A1.632,1.632,0,0,1,21.155,21.778ZM29.9,25.507l-6.645,6.645a1.626,1.626,0,0,1-1.153.475H21.7V23.948h8.679v.414A1.622,1.622,0,0,1,29.9,25.507Z" transform="translate(0 -2.25)" fill="#656565"/>
</svg>
