<svg xmlns="http://www.w3.org/2000/svg" width="63.035" height="56.033" viewBox="0 0 63.035 56.033">
  <path id="Icon_awesome-piggy-bank" data-name="Icon awesome-piggy-bank" d="M61.285,24.514H58.056a17.564,17.564,0,0,0-4.093-5.746l2.068-8.263h-3.5a10.44,10.44,0,0,0-7.989,3.754,17.357,17.357,0,0,0-2.517-.252H28.015a17.527,17.527,0,0,0-17.16,14.008H6.128a2.629,2.629,0,0,1-2.572-3.152,2.7,2.7,0,0,1,2.681-2.1h.109A.659.659,0,0,0,7,22.107V19.918a.659.659,0,0,0-.657-.657A6.269,6.269,0,0,0,.054,24.58a6.133,6.133,0,0,0,6.074,6.938h4.378a17.44,17.44,0,0,0,7,13.932v8.832a1.756,1.756,0,0,0,1.751,1.751h7a1.756,1.756,0,0,0,1.751-1.751V49.029H42.024v5.253a1.756,1.756,0,0,0,1.751,1.751h7a1.756,1.756,0,0,0,1.751-1.751V45.45a17.512,17.512,0,0,0,3.425-3.425h5.33a1.756,1.756,0,0,0,1.751-1.751V26.265A1.756,1.756,0,0,0,61.285,24.514Zm-14.008,7a1.751,1.751,0,1,1,1.751-1.751A1.756,1.756,0,0,1,47.277,31.518ZM28.015,10.506H42.024c.591,0,1.171.044,1.74.088,0-.033.011-.055.011-.088a10.506,10.506,0,1,0-21.012,0c0,.23.055.449.066.679A20.8,20.8,0,0,1,28.015,10.506Z" transform="translate(-0.001)" fill="#f6cc00"/>
</svg>
