<svg xmlns="http://www.w3.org/2000/svg" width="38.29" height="30.653" viewBox="0 0 38.29 30.653">
  <g id="Group_289" data-name="Group 289" transform="translate(-142.111 -303.46)">
    <path id="Path_354" data-name="Path 354" d="M219.853,323.612q0,4.349,0,8.7c0,1.149-.468,1.778-1.327,1.8-.893.025-1.41-.633-1.41-1.82,0-5.8-.009-11.6.009-17.4a1.289,1.289,0,0,0-.863-1.46,5.127,5.127,0,0,1-2.854-6.006,5.228,5.228,0,0,1,10.151.012,5.159,5.159,0,0,1-2.869,6.007,1.24,1.24,0,0,0-.86,1.367c.048,2.931.02,5.864.02,8.8Zm-1.348-17.36a2.486,2.486,0,0,0-.1,4.97,2.486,2.486,0,1,0,.1-4.97Z" transform="translate(-57.227 0)" fill="#1b79e6"/>
    <path id="Path_355" data-name="Path 355" d="M145.953,328.847c0-1.3-.017-2.6.008-3.906a.927.927,0,0,0-.648-1.027,5.191,5.191,0,0,1,.018-9.6.931.931,0,0,0,.629-1.04q-.021-3.955,0-7.911c.007-.992.538-1.545,1.382-1.533.786.011,1.276.551,1.344,1.494.016.227.007.456.007.683,0,2.344.024,4.688-.014,7.031a1.247,1.247,0,0,0,.857,1.386,4.856,4.856,0,0,1,2.983,4.647,4.807,4.807,0,0,1-2.905,4.692,1.4,1.4,0,0,0-.932,1.545c.037,2.246.018,4.492.018,6.739a8.493,8.493,0,0,1-.022.976c-.093.8-.476,1.352-1.355,1.374a1.307,1.307,0,0,1-1.359-1.452c-.027-1.367-.007-2.734-.007-4.1Zm3.867-9.71a2.486,2.486,0,0,0-2.449-2.515,2.5,2.5,0,1,0-.033,5A2.492,2.492,0,0,0,149.82,319.137Z" transform="translate(0 -0.3)" fill="#1b79e6"/>
    <path id="Path_356" data-name="Path 356" d="M288.5,311.756c0-2.116-.019-4.232.009-6.347.015-1.129.691-1.771,1.615-1.583s1.123.853,1.121,1.685c-.01,4,.014,8.008-.02,12.011a1.425,1.425,0,0,0,.938,1.545,5.175,5.175,0,0,1-.143,9.387,1.1,1.1,0,0,0-.794,1.231c.056,1.039.029,2.083.009,3.124-.019,1-.523,1.561-1.357,1.564-.816,0-1.34-.567-1.369-1.566q-.047-1.659-.007-3.32a.855.855,0,0,0-.608-.942,5.2,5.2,0,0,1-.025-9.61.936.936,0,0,0,.64-1.026C288.483,315.858,288.5,313.807,288.5,311.756Zm1.364,9.481a2.452,2.452,0,0,0-2.457,2.587,2.508,2.508,0,0,0,2.444,2.423,2.548,2.548,0,0,0,2.517-2.562A2.482,2.482,0,0,0,289.86,321.238Z" transform="translate(-114.684 -0.268)" fill="#1b79e6"/>
  </g>
</svg>
