<svg xmlns="http://www.w3.org/2000/svg" width="21.848" height="33.559" viewBox="0 0 21.848 33.559">
  <path id="Path_705" data-name="Path 705" d="M32.675,36.621a15.336,15.336,0,0,0,5.126-.53c2.734-.821,4.663-2.4,5.1-5.424.1-.681-.105-.793-.7-.789-3.054.019-6.108.009-9.162.009-1.148,0-1.148,0-1.148-1.19a2.346,2.346,0,0,0,0-.349c-.1-.63.2-.779.789-.775,3.112.025,6.225-.008,9.337.026.723.008.844-.172.572-.824a6.112,6.112,0,0,0-3.35-3.252,10.678,10.678,0,0,0-4.869-.7c-.407.013-.814.006-1.222,0-1.418-.015-1.189.169-1.274-1.252-.051-.845.2-1.064,1.049-1.06q9.86.055,19.721,0c.815,0,1.122.157,1.065,1.034-.082,1.272-.019,1.277-1.325,1.277H45.51c.1.392.415.516.625.714A6.313,6.313,0,0,1,48.043,26.7c.177.76.531.931,1.241.9,1.248-.054,2.5,0,3.751-.024.485-.011.646.136.658.637.042,1.674.063,1.673-1.623,1.673-1.018,0-2.036,0-3.054,0-.281,0-.561-.053-.638.386-.822,4.683-4.129,6.9-8.272,8.25-1.379.45-1.387.411-.477,1.59q5.088,6.594,10.165,13.2c.15.195.388.358.368.753-1.327,0-2.651,0-3.975,0a.682.682,0,0,1-.558-.357q-6.47-8.444-12.942-16.889C32.675,36.8,32.684,36.769,32.675,36.621Z" transform="translate(-31.86 -20.508)" fill="#656565"/>
</svg>
