<svg id="Group_529" data-name="Group 529" xmlns="http://www.w3.org/2000/svg" width="54.741" height="54.741" viewBox="0 0 54.741 54.741">
  <path id="Path_545" data-name="Path 545" d="M50.288,33.511l.784,7.545-6.934,3.093-3.084,6.925-7.545-.785-6.14,4.452-6.14-4.452-7.545.785L10.592,44.14,3.668,41.056l.784-7.545L0,27.371l4.452-6.14-.784-7.545L10.6,10.592l3.084-6.925,7.545.785L27.37,0l6.14,4.452,7.545-.785L44.148,10.6l6.925,3.084-.784,7.545,4.452,6.14Zm0,0" transform="translate(0 0)" fill="#37d8cf"/>
  <path id="Path_546" data-name="Path 546" d="M-1299.1,15626.705l7.068,7.066,12.059-12.057" transform="translate(1317.539 -15600.207)" fill="none" stroke="#232e27" stroke-linecap="round" stroke-linejoin="round" stroke-width="2"/>
</svg>
