<svg xmlns="http://www.w3.org/2000/svg" width="35.498" height="40.001" viewBox="0 0 35.498 40.001">
  <path id="Subtraction_3" data-name="Subtraction 3" d="M3642.7-12515H3614.8a3.781,3.781,0,0,1-3.8-3.75V-12522a10.589,10.589,0,0,1,10.65-10.5h1.32a13.974,13.974,0,0,0,5.779,1.251,13.9,13.9,0,0,0,5.775-1.251h1.323a10.589,10.589,0,0,1,10.65,10.5v3.248A3.781,3.781,0,0,1,3642.7-12515Zm-13.946-20a10.084,10.084,0,0,1-10.143-10,10.084,10.084,0,0,1,10.143-10,10.084,10.084,0,0,1,10.143,10A10.084,10.084,0,0,1,3628.751-12535Z" transform="translate(-3611.002 12555.001)" fill="#1b79e6"/>
</svg>
