<svg xmlns="http://www.w3.org/2000/svg" width="21.698" height="28.934" viewBox="0 0 21.698 28.934">
  <path id="Icon_awesome-receipt" data-name="Icon awesome-receipt" d="M20.252.18l-2.17,2.531L15.008.18a.9.9,0,0,0-1.085,0L10.849,2.712,7.775.18A.9.9,0,0,0,6.69.18L3.616,2.712,1.447.18A.9.9,0,0,0,0,.9V28.026a.9.9,0,0,0,1.447.723l2.17-2.531L6.69,28.75a.9.9,0,0,0,1.085,0l3.074-2.531,3.074,2.531a.9.9,0,0,0,1.085,0l3.074-2.531,2.17,2.531a.9.9,0,0,0,1.447-.723V.9A.9.9,0,0,0,20.252.18Zm-2.17,20.161a.453.453,0,0,1-.452.452H4.068a.453.453,0,0,1-.452-.452v-.9a.453.453,0,0,1,.452-.452H17.63a.453.453,0,0,1,.452.452Zm0-5.425a.453.453,0,0,1-.452.452H4.068a.453.453,0,0,1-.452-.452v-.9a.453.453,0,0,1,.452-.452H17.63a.453.453,0,0,1,.452.452Zm0-5.425a.453.453,0,0,1-.452.452H4.068a.453.453,0,0,1-.452-.452v-.9a.453.453,0,0,1,.452-.452H17.63a.453.453,0,0,1,.452.452Z" transform="translate(0 0.002)" fill="#1b79e6"/>
</svg>
