<svg xmlns="http://www.w3.org/2000/svg" width="49.76" height="47.141" viewBox="0 0 49.76 47.141">
  <path id="Icon_material-account-balance-wallet" data-name="Icon material-account-balance-wallet" d="M51.64,43.784V46.4A5.253,5.253,0,0,1,46.4,51.64H9.738A5.236,5.236,0,0,1,4.5,46.4V9.738A5.236,5.236,0,0,1,9.738,4.5H46.4A5.253,5.253,0,0,1,51.64,9.738v2.619H28.07a5.236,5.236,0,0,0-5.238,5.238V38.546a5.236,5.236,0,0,0,5.238,5.238ZM28.07,38.546H54.259V17.595H28.07ZM38.546,32a3.928,3.928,0,1,1,3.928-3.928A3.923,3.923,0,0,1,38.546,32Z" transform="translate(-4.5 -4.5)" fill="#fff"/>
</svg>
